<svg width="272" height="44" viewBox="0 0 272 44" fill="none" xmlns="http://www.w3.org/2000/svg">
<g clip-path="url(#clip0_9034_2954)">
<path d="M185.436 4.72468C185.932 4.72468 186.333 5.13407 186.333 5.63909C186.333 6.45375 187.327 6.88759 187.969 6.40286C188.751 5.81314 189.567 5.33179 190.417 4.95884C191.881 4.3171 193.446 3.99622 195.114 3.99622C198.738 3.99622 201.818 5.39244 204.354 8.1849C206.889 10.9774 208.157 14.559 208.157 18.9298C208.157 23.1444 206.847 26.674 204.226 29.5185C201.606 32.3458 198.5 33.7593 194.91 33.7593C193.31 33.7593 191.821 33.473 190.443 32.9008C188.702 32.1561 186.333 33.2156 186.333 35.1395V40.8879C186.333 42.2673 185.236 43.3853 183.883 43.3853H181.867C180.513 43.3853 179.416 42.2673 179.416 40.8879V7.22227C179.416 5.8429 180.513 4.72468 181.867 4.72468H185.436ZM193.659 10.5524C191.464 10.5524 189.643 11.3156 188.197 12.8419C186.75 14.3682 186.027 16.3628 186.027 18.8257C186.027 21.3406 186.75 23.3786 188.197 24.9396C189.643 26.4832 191.464 27.2552 193.659 27.2552C195.786 27.2552 197.573 26.466 199.019 24.8877C200.483 23.3092 201.214 21.2973 201.214 18.8517C201.214 16.4235 200.5 14.4376 199.07 12.8939C197.641 11.3329 195.837 10.5524 193.659 10.5524Z" fill="#57585A"/>
<path d="M233.713 5.63286C233.713 5.13129 234.112 4.72468 234.606 4.72468H238.206C239.56 4.72468 240.658 5.8429 240.658 7.22227V30.5331C240.658 31.9125 239.56 33.0308 238.206 33.0308H234.597C234.11 33.0308 233.713 32.6284 233.713 32.1321C233.713 31.3425 232.77 30.9196 232.149 31.3916C231.303 32.0336 230.456 32.5364 229.605 32.9008C228.243 33.473 226.763 33.7593 225.163 33.7593C221.573 33.7593 218.467 32.3458 215.847 29.5185C213.226 26.674 211.916 23.1444 211.916 18.9298C211.916 14.559 213.184 10.9774 215.719 8.1849C218.255 5.39244 221.335 3.99622 224.959 3.99622C226.627 3.99622 228.192 4.3171 229.656 4.95884C230.501 5.3294 231.31 5.80691 232.08 6.39143C232.719 6.876 233.713 6.44494 233.713 5.63286ZM226.389 10.5524C224.227 10.5524 222.432 11.3329 221.003 12.8939C219.573 14.4376 218.859 16.4235 218.859 18.8517C218.859 21.2973 219.582 23.3092 221.028 24.8877C222.492 26.466 224.287 27.2552 226.414 27.2552C228.609 27.2552 230.43 26.4832 231.877 24.9396C233.323 23.3786 234.045 21.3406 234.045 18.8257C234.045 16.3628 233.323 14.3682 231.877 12.8419C230.43 11.3156 228.601 10.5524 226.389 10.5524Z" fill="#57585A"/>
<path d="M244.623 8.27615C243.958 6.63248 245.146 4.82886 246.89 4.82886H248.716C249.708 4.82886 250.601 5.43727 250.981 6.37041L255.423 17.2989C256.242 19.3149 259.026 19.3655 259.916 17.3807L264.886 6.28867C265.285 5.39935 266.157 4.82886 267.116 4.82886H268.867C270.652 4.82886 271.84 6.71377 271.095 8.36825L255.935 42.0337C255.536 42.9209 254.667 43.4896 253.707 43.4896H251.934C250.139 43.4896 248.954 41.5899 249.713 39.934L253.343 32.021C253.633 31.388 253.652 30.6597 253.389 30.0132L244.623 8.27615Z" fill="#57585A"/>
<path d="M83.8265 7.07022C84.7186 7.91507 84.6005 9.33041 83.7393 10.2081L82.6498 11.3185C81.6963 12.2906 80.1773 12.2498 79.0578 11.4833C78.0246 10.776 77.0561 10.4223 76.1525 10.4223C75.3697 10.4223 74.7572 10.5958 74.3146 10.9427C73.8722 11.2722 73.651 11.6885 73.651 12.1915C73.651 12.573 73.7871 12.9286 74.0593 13.2581C74.3487 13.5703 75.0464 14.0039 76.1525 14.559L78.705 15.8598C81.3935 17.2127 83.2397 18.5916 84.2439 19.9964C85.2479 21.4013 85.7497 23.0491 85.7497 24.9396C85.7497 27.4545 84.8394 29.5533 83.0185 31.2357C81.215 32.918 78.7901 33.7593 75.744 33.7593C72.412 33.7593 69.6329 32.6674 67.4066 30.4837C66.5507 29.6443 66.6295 28.2705 67.4328 27.3788L68.4647 26.233C69.4583 25.13 71.1685 25.1921 72.3871 26.0283C72.6464 26.206 72.9146 26.3722 73.1916 26.5266C74.2975 27.1162 75.2761 27.4112 76.1269 27.4112C77.0458 27.4112 77.7861 27.1858 78.3475 26.7347C78.9091 26.2838 79.19 25.7636 79.19 25.1738C79.19 24.0811 78.1775 23.0144 76.1525 21.9737L73.8042 20.7769C69.3116 18.4701 67.0654 15.5823 67.0654 12.1134C67.0654 9.87599 67.908 7.96809 69.5925 6.38974C71.2942 4.79405 73.4638 3.99622 76.1013 3.99622C77.9051 3.99622 79.5982 4.40382 81.1808 5.219C82.1541 5.70444 83.0361 6.32152 83.8265 7.07022Z" fill="black"/>
<path d="M89.6261 8.38394C88.963 6.74026 90.1487 4.93665 91.8923 4.93665H93.7199C94.7109 4.93665 95.6044 5.54503 95.9838 6.4782L100.426 17.4067C101.246 19.4227 104.029 19.4733 104.919 17.4885L109.89 6.39646C110.289 5.50713 111.16 4.93665 112.119 4.93665H113.871C115.657 4.93665 116.843 6.82155 116.098 8.47604L100.939 42.1416C100.539 43.0286 99.6696 43.5972 98.7117 43.5972H96.9363C95.1427 43.5972 93.9567 41.6978 94.7167 40.0417L98.3471 32.1287C98.6375 31.4956 98.6545 30.7676 98.3937 30.1211L89.6261 8.38394Z" fill="black"/>
<path d="M120.014 7.22227C120.014 5.8429 121.111 4.72468 122.464 4.72468H126.055C126.553 4.72468 126.957 5.13595 126.957 5.64325C126.957 6.42341 127.858 6.8564 128.481 6.40338C129.471 5.68396 130.392 5.15043 131.245 4.80272C132.538 4.26505 133.857 3.99622 135.201 3.99622C137.958 3.99622 140.298 4.97617 142.22 6.93609C143.837 8.60115 144.645 11.0641 144.645 14.3248V30.5331C144.645 31.9125 143.548 33.0308 142.195 33.0308H140.204C138.851 33.0308 137.754 31.9125 137.754 30.5331V20.6209C137.754 17.2387 137.6 14.9926 137.294 13.8825C137.005 12.7725 136.486 11.9313 135.737 11.3589C135.005 10.7692 134.095 10.4744 133.006 10.4744C131.594 10.4744 130.377 10.96 129.356 11.9313C128.352 12.8852 127.654 14.2121 127.263 15.9118C127.059 16.7964 126.957 18.713 126.957 21.6615V30.5331C126.957 31.9125 125.859 33.0308 124.506 33.0308H122.464C121.111 33.0308 120.014 31.9125 120.014 30.5331V7.22227Z" fill="black"/>
<path d="M175.139 8.33246C176.17 9.37144 175.77 11.0671 174.5 11.78L172.73 12.7734C171.757 13.3199 170.564 13.1015 169.687 12.4057C169.068 11.9141 168.451 11.5392 167.837 11.2809C166.782 10.8299 165.54 10.6044 164.11 10.6044C161.507 10.6044 159.397 11.4023 157.78 12.998C156.181 14.5763 155.381 16.6056 155.381 19.0859C155.381 21.4967 156.155 23.4653 157.703 24.9916C159.252 26.5179 161.285 27.281 163.804 27.281C166.041 27.281 167.923 26.7215 169.449 25.6023C170.482 24.8444 171.886 24.5917 172.937 25.324L174.425 26.3609C175.587 27.1712 175.855 28.8321 174.821 29.8058C172.02 32.4415 168.399 33.7593 163.957 33.7593C159.073 33.7593 155.245 32.2849 152.471 29.3363C149.714 26.3879 148.336 22.9363 148.336 18.9818C148.336 16.2414 149.008 13.7178 150.352 11.411C151.697 9.10415 153.568 7.29165 155.968 5.97349C158.384 4.65531 161.081 3.99622 164.059 3.99622C166.816 3.99622 169.292 4.55991 171.487 5.6873C172.861 6.38213 174.078 7.26384 175.139 8.33246Z" fill="black"/>
<path d="M56.1636 6.1032C56.1636 5.60163 56.5626 5.19502 57.0545 5.19502H60.6559C62.0093 5.19502 63.1064 6.31324 63.1064 7.69261V31.0034C63.1064 32.3829 62.0093 33.5011 60.6559 33.5011H57.0453C56.5582 33.5011 56.1636 33.0987 56.1636 32.6024C56.1636 31.8128 55.2187 31.3899 54.5978 31.8619C53.753 32.5039 52.9052 33.0068 52.0541 33.3711C50.6927 33.9433 49.2122 34.2297 47.6127 34.2297C44.0222 34.2297 40.9167 32.8161 38.296 29.9888C35.6755 27.1444 34.3652 23.6149 34.3652 19.4001C34.3652 15.0293 35.633 11.4477 38.1684 8.65524C40.704 5.86278 43.784 4.46655 47.4084 4.46655C49.0761 4.46655 50.6417 4.78744 52.1051 5.42918C52.9501 5.79973 53.7583 6.27725 54.5295 6.86177C55.1688 7.34634 56.1636 6.91528 56.1636 6.1032ZM48.8379 11.0227C46.6768 11.0227 44.8816 11.8032 43.4521 13.3642C42.0228 14.9079 41.3081 16.8938 41.3081 19.3221C41.3081 21.7676 42.0311 23.7795 43.4777 25.358C44.9411 26.9363 46.7363 27.7255 48.8635 27.7255C51.0584 27.7255 52.8793 26.9535 54.3256 25.41C55.7722 23.849 56.4955 21.811 56.4955 19.296C56.4955 16.8331 55.7722 14.8385 54.3256 13.3122C52.8793 11.7859 51.0501 11.0227 48.8379 11.0227Z" fill="black"/>
<path opacity="0.2" d="M0 0.000160217L0 38.5531H28.3682L28.3682 0.000160217H0Z" fill="black"/>
<path d="M18.9121 0.000160217L18.9121 38.5531H28.3682V0.000160217H18.9121Z" fill="black"/>
<path opacity="0.1" d="M0.000896454 38.5531H28.3691V28.9149L0.000896454 28.9149V38.5531Z" fill="black"/>
<path opacity="0.7" d="M0.000896454 38.5531H28.3691V25.6238L0.000896454 25.6238V38.5531Z" fill="black"/>
<path opacity="0.3" d="M0.000896454 25.6238L28.3691 25.6238V12.6944L0.000896454 12.6944V25.6238Z" fill="black"/>
<path opacity="0.7" d="M9.45703 0.000160217L9.45703 38.5531H18.9131V0.000160217H9.45703Z" fill="black"/>
<path opacity="0.3" d="M0 0.000160217L0 38.5531H9.45608L9.45608 0.000160217H0Z" fill="black"/>
</g>
<defs>
<clipPath id="clip0_9034_2954">
<rect width="271.459" height="43.7247" fill="white"/>
</clipPath>
</defs>
</svg>
