<svg width="90" height="40" viewBox="0 0 90 40" fill="none" xmlns="http://www.w3.org/2000/svg">
<path d="M10.1351 0H0V3.3337H10.1351V0Z" fill="black"/>
<path d="M3.37695 10L3.37695 0L-0.00178242 0L-0.00178242 10H3.37695Z" fill="black"/>
<path d="M10.1351 36.6663H0V40H10.1351V36.6663Z" fill="black"/>
<path d="M0 30L0 40H3.37873L3.37873 30H0Z" fill="black"/>
<path d="M0 20.0011L0 26.6674H3.37873L3.37873 20.0011H0Z" fill="black"/>
<path d="M1.68934 16.6095C2.60616 16.6095 3.34939 15.8762 3.34939 14.9716C3.34939 14.067 2.60616 13.3337 1.68934 13.3337C0.772525 13.3337 0.0292969 14.067 0.0292969 14.9716C0.0292969 15.8762 0.772525 16.6095 1.68934 16.6095Z" fill="black"/>
<path d="M23.6481 40.0011H33.7832V36.6674H23.6481V40.0011Z" fill="black"/>
<path d="M30.4043 30.0011V40.0011H33.783V30.0011H30.4043Z" fill="black"/>
<path d="M23.6481 3.33368L33.7832 3.33368V-2.45571e-05L23.6481 -2.45571e-05V3.33368Z" fill="black"/>
<path d="M33.7812 10V0L30.4025 0V10H33.7812Z" fill="black"/>
<path d="M33.7812 19.9989V13.3326H30.4025V19.9989H33.7812Z" fill="black"/>
<path d="M32.0936 26.6663C33.0105 26.6663 33.7537 25.933 33.7537 25.0284C33.7537 24.1238 33.0105 23.3904 32.0936 23.3904C31.1768 23.3904 30.4336 24.1238 30.4336 25.0284C30.4336 25.933 31.1768 26.6663 32.0936 26.6663Z" fill="black"/>
<path d="M43.5511 20.6787C42.7143 20.6787 42.0602 20.451 41.5888 19.9955C41.1174 19.5401 40.8821 18.8947 40.8828 18.0594C40.8828 17.2004 41.1005 16.5365 41.5358 16.0676C41.9711 15.5988 42.5726 15.364 43.3402 15.3633C44.074 15.3633 44.6457 15.5695 45.0555 15.982C45.4652 16.3944 45.6712 16.9645 45.6735 17.6922V18.371H42.3196C42.3339 18.7678 42.453 19.0779 42.6771 19.3012C42.9011 19.5245 43.2139 19.6357 43.6154 19.635C43.9143 19.6364 44.2124 19.6043 44.504 19.5393C44.8049 19.467 45.0975 19.364 45.3769 19.2322V20.3138C45.1267 20.4376 44.8614 20.5292 44.5875 20.5864C44.2462 20.6528 43.8989 20.6838 43.5511 20.6787ZM43.3515 16.3569C43.2198 16.3502 43.0883 16.3721 42.9661 16.4209C42.844 16.4697 42.7341 16.5444 42.6444 16.6396C42.459 16.8665 42.3558 17.1481 42.3511 17.4396H44.3405C44.3352 17.0947 44.2439 16.828 44.0665 16.6396C43.9748 16.5446 43.8635 16.4703 43.7401 16.4215C43.6168 16.3728 43.4842 16.3507 43.3515 16.3569Z" fill="black"/>
<path d="M51.3346 20.5853H49.9158V17.5921C49.9158 17.2227 49.8493 16.9445 49.7162 16.7598C49.5832 16.5751 49.3711 16.4827 49.0802 16.4827C48.6832 16.4827 48.3964 16.6133 48.2197 16.8744C48.043 17.1355 47.9547 17.5691 47.9547 18.1751V20.5853H46.5371V15.4601H47.6197L47.8103 16.1155H47.8893C48.0464 15.8691 48.2735 15.6737 48.5422 15.5536C48.8397 15.4227 49.1627 15.3577 49.4884 15.3633C50.0899 15.3633 50.5485 15.5247 50.8643 15.8473C51.1801 16.17 51.3368 16.6366 51.3346 17.2471V20.5853Z" fill="black"/>
<path d="M55.8089 20.5853L55.5349 19.8888H55.4977C55.3037 20.1479 55.0512 20.359 54.7601 20.5052C54.447 20.6312 54.1102 20.69 53.7722 20.6777C53.2738 20.6777 52.8813 20.5371 52.5949 20.2559C52.3084 19.9748 52.1648 19.5742 52.1641 19.0542C52.1641 18.5105 52.3573 18.1091 52.7437 17.8503C53.1302 17.5914 53.7117 17.4486 54.4884 17.4219L55.3906 17.394V17.1715C55.3906 16.6522 55.121 16.3926 54.582 16.3926C54.1658 16.3926 53.6798 16.5161 53.1159 16.7642L52.6467 15.8195C53.2618 15.5065 53.9452 15.3472 54.6372 15.3555C55.3342 15.3555 55.8687 15.5039 56.2409 15.8006C56.613 16.0973 56.7991 16.5528 56.7991 17.167V20.5853H55.8089ZM55.3906 18.2097L54.8413 18.2286C54.4293 18.2404 54.1226 18.3146 53.9211 18.4511C53.8213 18.5191 53.741 18.6113 53.688 18.719C53.6351 18.8266 53.6112 18.9459 53.6189 19.0653C53.6189 19.46 53.8485 19.6573 54.3079 19.6573C54.4518 19.6646 54.5956 19.6435 54.7312 19.5954C54.8667 19.5472 54.9912 19.473 55.0973 19.3769C55.1966 19.2806 55.2742 19.1647 55.3251 19.0368C55.376 18.909 55.3991 18.772 55.3928 18.6347L55.3906 18.2097Z" fill="black"/>
<path d="M64.2159 19.0642C64.2159 19.5901 64.0309 19.9907 63.661 20.2659C63.2911 20.5411 62.737 20.6787 61.9987 20.6787C61.6749 20.683 61.3514 20.6577 61.0323 20.6031C60.7753 20.5557 60.5242 20.481 60.2834 20.3805V19.2244C60.5698 19.3547 60.8681 19.4575 61.1744 19.5315C61.4582 19.6085 61.7507 19.6503 62.045 19.6561C62.5592 19.6561 62.8175 19.5093 62.8175 19.2111C62.8194 19.1619 62.8112 19.1128 62.7936 19.0668C62.776 19.0207 62.7492 18.9786 62.7149 18.9429C62.6092 18.8487 62.4903 18.77 62.3619 18.7092C62.1935 18.6209 61.9702 18.5193 61.692 18.4043C61.3813 18.286 61.0857 18.1321 60.8112 17.9459C60.6368 17.8199 60.4963 17.6537 60.4018 17.4619C60.3117 17.2508 60.2683 17.0232 60.2744 16.7942C60.2661 16.5876 60.311 16.3823 60.4049 16.1975C60.4987 16.0127 60.6385 15.8543 60.8112 15.7372C61.1698 15.4879 61.6762 15.3633 62.3337 15.3633C62.9653 15.3645 63.5889 15.5024 64.1606 15.7672L63.7332 16.7753C63.4727 16.664 63.2291 16.575 63.0024 16.5049C62.7788 16.433 62.5452 16.3955 62.31 16.3937C61.8916 16.3937 61.683 16.5049 61.683 16.7275C61.6858 16.7943 61.7058 16.8592 61.7412 16.9163C61.7765 16.9733 61.8259 17.0205 61.8848 17.0535C62.1672 17.2151 62.4634 17.3517 62.7701 17.4619C63.0857 17.5762 63.3857 17.7287 63.6633 17.9159C63.8402 18.0426 63.9836 18.2094 64.0817 18.4021C64.1767 18.6099 64.2226 18.8363 64.2159 19.0642Z" fill="black"/>
<path d="M68.6639 19.0642C68.6639 19.5902 68.4786 19.9907 68.1079 20.2659C67.7373 20.5412 67.1836 20.6788 66.4468 20.6788C66.1225 20.683 65.7986 20.6577 65.4791 20.6031C65.2225 20.5557 64.9718 20.4811 64.7314 20.3806V19.2244C65.0174 19.3547 65.3154 19.4575 65.6212 19.5315C65.9055 19.6085 66.1983 19.6503 66.493 19.6562C67.0072 19.6562 67.2644 19.5078 67.2644 19.2111C67.2665 19.1619 67.2585 19.1127 67.2409 19.0666C67.2232 19.0206 67.1963 18.9785 67.1617 18.9429C67.0565 18.8482 66.9375 18.7695 66.8088 18.7092C66.6419 18.621 66.4189 18.5193 66.14 18.4044C65.8292 18.2862 65.5335 18.1324 65.2592 17.9459C65.0839 17.8229 64.9418 17.6594 64.8454 17.4697C64.7547 17.2588 64.7112 17.031 64.7179 16.802C64.709 16.5954 64.7536 16.3898 64.8475 16.2049C64.9414 16.0199 65.0816 15.8616 65.2547 15.745C65.6126 15.4957 66.1197 15.3711 66.7761 15.3711C67.4076 15.3723 68.0313 15.5102 68.603 15.775L68.1756 16.7831C67.9151 16.6719 67.6715 16.5828 67.4459 16.5127C67.2223 16.4409 66.9887 16.4034 66.7535 16.4015C66.3351 16.4015 66.1253 16.5127 66.1253 16.7353C66.1282 16.8022 66.1484 16.8673 66.1839 16.9243C66.2194 16.9814 66.2691 17.0286 66.3283 17.0613C66.6105 17.2231 66.9068 17.3598 67.2136 17.4697C67.529 17.5837 67.8287 17.7363 68.1057 17.9237C68.2829 18.05 68.4265 18.2169 68.5241 18.4099C68.6204 18.6147 68.6682 18.8385 68.6639 19.0642Z" fill="black"/>
<path d="M72.7841 20.5853L72.5134 19.8899H72.4762C72.2822 20.149 72.0297 20.3601 71.7387 20.5063C71.4255 20.6323 71.0887 20.6911 70.7507 20.6788C70.2523 20.6788 69.8598 20.5382 69.5734 20.257C69.2869 19.9759 69.1433 19.5753 69.1426 19.0553C69.1426 18.5116 69.3358 18.1102 69.7222 17.8513C70.1087 17.5925 70.6902 17.4497 71.4669 17.423L72.3691 17.3951V17.1726C72.3691 16.6533 72.0995 16.3937 71.5605 16.3937C71.1443 16.3937 70.6583 16.5172 70.0944 16.7653L69.6253 15.8206C70.2388 15.5079 70.9207 15.3482 71.6112 15.3555C72.3082 15.3555 72.8427 15.5039 73.2149 15.8006C73.587 16.0973 73.7731 16.5528 73.7731 17.167V20.5853H72.7841ZM72.3657 18.2096L71.8165 18.2286C71.4045 18.2404 71.0977 18.3146 70.8962 18.4511C70.7964 18.519 70.7161 18.6113 70.6632 18.719C70.6102 18.8266 70.5864 18.9459 70.594 19.0653C70.594 19.4603 70.8195 19.6573 71.2819 19.6573C71.4258 19.6645 71.5696 19.6434 71.7052 19.5953C71.8407 19.5471 71.9651 19.4729 72.0713 19.3769C72.1704 19.2804 72.2479 19.1645 72.2988 19.0367C72.3497 18.9089 72.3729 18.7719 72.3668 18.6347L72.3657 18.2096Z" fill="black"/>
<path d="M79.7447 20.5853H78.3271V17.5921C78.3271 17.2227 78.2606 16.9445 78.1275 16.7598C77.9944 16.5751 77.7813 16.4827 77.4903 16.4827C77.0934 16.4827 76.8065 16.6133 76.6299 16.8744C76.4532 17.1355 76.3648 17.5691 76.3648 18.1752V20.5853H74.9473V15.4601H76.031L76.2216 16.1155H76.3006C76.4571 15.8687 76.6844 15.6731 76.9535 15.5536C77.251 15.4225 77.574 15.3576 77.8997 15.3633C78.5012 15.3633 78.9598 15.5247 79.2756 15.8474C79.5913 16.17 79.7477 16.6366 79.7447 17.2472V20.5853Z" fill="black"/>
<path d="M83.0293 20.6788C81.4121 20.6788 80.6035 19.8027 80.6035 18.0505C80.6035 17.1789 80.8234 16.5131 81.2633 16.0532C81.7031 15.5933 82.3335 15.3633 83.1545 15.3633C83.714 15.354 84.268 15.4733 84.7728 15.7116L84.3555 16.7942C84.13 16.7052 83.9221 16.6311 83.7319 16.5717C83.545 16.5158 83.3509 16.4873 83.1556 16.4871C82.4181 16.4871 82.0493 17.0038 82.0493 18.0372C82.0493 19.0401 82.4181 19.5416 83.1556 19.5416C83.4125 19.543 83.6681 19.5055 83.9135 19.4303C84.1605 19.3518 84.3951 19.2395 84.6104 19.0965V20.2938C84.3972 20.4305 84.1624 20.5313 83.9157 20.592C83.6245 20.6539 83.3272 20.683 83.0293 20.6788Z" fill="black"/>
<path d="M87.8792 20.6787C87.0424 20.6787 86.3887 20.451 85.918 19.9955C85.4474 19.5401 85.2117 18.8947 85.2109 18.0594C85.2109 17.2004 85.4286 16.5365 85.8639 16.0676C86.2992 15.5988 86.9007 15.364 87.6683 15.3633C88.4021 15.3633 88.9735 15.5695 89.3825 15.982C89.7915 16.3944 89.9971 16.9645 89.9994 17.6922V18.371H86.6477C86.6635 18.7682 86.7819 19.0786 87.0052 19.3012C87.2285 19.5237 87.542 19.635 87.9446 19.635C88.2432 19.6363 88.5409 19.6042 88.8321 19.5393C89.1334 19.467 89.4263 19.364 89.7061 19.2322V20.3138C89.4539 20.4374 89.1868 20.5286 88.9111 20.5853C88.5714 20.6518 88.2255 20.6831 87.8792 20.6787ZM87.6796 16.3569C87.5479 16.3502 87.4164 16.3721 87.2943 16.4209C87.1721 16.4697 87.0623 16.5444 86.9725 16.6396C86.7874 16.8666 86.6846 17.1483 86.6804 17.4396H88.6697C88.663 17.0947 88.5716 16.828 88.3957 16.6396C88.3037 16.5447 88.1922 16.4704 88.0687 16.4217C87.9452 16.3729 87.8125 16.3509 87.6796 16.3569Z" fill="black"/>
<path d="M44.5787 29.9789H43.1611V26.9845C43.1611 26.6151 43.0934 26.3369 42.9604 26.1522C42.8273 25.9675 42.6153 25.8752 42.3243 25.8752C41.9274 25.8752 41.6405 26.0057 41.4639 26.2668C41.2872 26.528 41.1988 26.9612 41.1988 27.5665V29.9789H39.7812V24.8526H40.865L41.0556 25.508H41.1345C41.2911 25.2611 41.5184 25.0656 41.7875 24.946C42.0846 24.8151 42.4072 24.7501 42.7326 24.7558C43.334 24.7558 43.7927 24.9171 44.1084 25.2398C44.4242 25.5625 44.581 26.028 44.5787 26.6363V29.9789Z" fill="black"/>
<path d="M50.5483 29.9789H49.1307V26.9846C49.1307 26.6151 49.0642 26.337 48.9311 26.1522C48.798 25.9675 48.5849 25.8752 48.2939 25.8752C47.8969 25.8752 47.6105 26.0057 47.4346 26.2669C47.2586 26.528 47.1703 26.9612 47.1695 27.5665V29.9789H45.752V24.8526H46.8346L47.0252 25.508H47.1041C47.2607 25.2611 47.4879 25.0656 47.7571 24.9461C48.0545 24.815 48.3776 24.75 48.7033 24.7558C49.3047 24.7558 49.7634 24.9171 50.0791 25.2398C50.3949 25.5625 50.5513 26.028 50.5483 26.6363V29.9789Z" fill="black"/>
<path d="M56.4447 27.4062C56.4447 28.2408 56.2218 28.8936 55.776 29.3646C55.3302 29.8357 54.7088 30.0712 53.9118 30.0712C53.4507 30.0805 52.9953 29.9688 52.5924 29.7474C52.2114 29.5325 51.9052 29.209 51.7138 28.8194C51.5007 28.3786 51.3957 27.8945 51.4071 27.4062C51.4071 26.568 51.6285 25.9167 52.0713 25.4523C52.5142 24.9879 53.1371 24.7557 53.94 24.7557C54.4007 24.7464 54.8558 24.8569 55.2595 25.0762C55.6397 25.2895 55.9459 25.611 56.138 25.9986C56.3514 26.4374 56.4565 26.9197 56.4447 27.4062ZM52.8517 27.4062C52.8517 27.9136 52.9363 28.2975 53.1055 28.5579C53.2746 28.8183 53.5498 28.9481 53.931 28.9473C54.3069 28.9473 54.5787 28.8183 54.7464 28.5601C54.914 28.302 54.9971 27.9173 54.9956 27.4062C54.9956 26.8988 54.9118 26.5183 54.7441 26.2646C54.5772 26.0109 54.302 25.884 53.9208 25.884C53.5397 25.884 53.2701 26.0098 53.1032 26.2624C52.9363 26.5149 52.8517 26.8955 52.8517 27.4062Z" fill="black"/>
<path d="M58.5663 29.9788L56.5859 24.8525H58.0689L59.0726 27.7734C59.1788 28.1155 59.2491 28.4675 59.2824 28.8238H59.3106C59.3376 28.4668 59.4076 28.1141 59.5192 27.7734L60.5184 24.8525H62.0014L60.0211 29.9788H58.5663Z" fill="black"/>
<path d="M65.759 29.9788L65.485 29.2823H65.4477C65.2544 29.5416 65.0022 29.7528 64.7113 29.8987C64.3982 30.0248 64.0614 30.0836 63.7234 30.0712C63.2249 30.0712 62.8321 29.9306 62.5449 29.6495C62.2577 29.3683 62.1145 28.9677 62.1152 28.4477C62.1152 27.904 62.3081 27.5027 62.6938 27.2438C63.0795 26.9849 63.6614 26.8425 64.4395 26.8165L65.3417 26.7887V26.5661C65.3417 26.0469 65.0718 25.7872 64.532 25.7872C64.117 25.7872 63.6283 25.9111 63.0659 26.1589L62.5968 25.2142C63.2114 24.9012 63.8946 24.7422 64.5861 24.7513C65.2831 24.7513 65.8176 24.8996 66.1898 25.1964C66.562 25.4931 66.7477 25.9486 66.7469 26.5628V29.9788H65.759ZM65.3417 27.6032L64.7925 27.6221C64.3813 27.634 64.0745 27.7081 63.8723 27.8446C63.7725 27.9126 63.6922 28.0049 63.6392 28.1125C63.5862 28.2201 63.5624 28.3394 63.57 28.4589C63.57 28.8528 63.7956 29.0508 64.258 29.0508C64.4018 29.0578 64.5456 29.0367 64.6811 28.9885C64.8166 28.9404 64.9411 28.8663 65.0474 28.7704C65.1465 28.674 65.224 28.5581 65.2749 28.4302C65.3258 28.3024 65.3489 28.1655 65.3429 28.0282L65.3417 27.6032Z" fill="black"/>
<path d="M70.1138 28.9563C70.4175 28.9465 70.7181 28.8925 71.0058 28.796V29.8375C70.5934 30.0045 70.15 30.0841 69.7044 30.0712C69.1368 30.0712 68.7232 29.9299 68.4639 29.6473C68.2045 29.3646 68.0755 28.9403 68.077 28.3743V25.9019H67.4004V25.311L68.1808 24.8425L68.5902 23.761H69.4924V24.8526H70.9483V25.9019H69.4946V28.3743C69.4872 28.4564 69.4986 28.539 69.5281 28.6161C69.5576 28.6932 69.6044 28.7627 69.6649 28.8194C69.7929 28.917 69.9523 28.9656 70.1138 28.9563Z" fill="black"/>
<path d="M79.1127 27.4062C79.1127 28.2408 78.8898 28.8936 78.444 29.3646C77.9981 29.8357 77.3767 30.0712 76.5798 30.0712C76.1187 30.0805 75.6633 29.9688 75.2603 29.7474C74.8794 29.5325 74.5731 29.209 74.3818 28.8194C74.1687 28.3786 74.0636 27.8945 74.0751 27.4062C74.0751 26.568 74.2965 25.9167 74.7393 25.4523C75.1821 24.9879 75.805 24.7557 76.608 24.7557C77.0687 24.7464 77.5238 24.8569 77.9274 25.0762C78.3076 25.2895 78.6138 25.611 78.806 25.9986C79.0194 26.4374 79.1245 26.9197 79.1127 27.4062ZM75.5197 27.4062C75.5197 27.9136 75.6043 28.2975 75.7734 28.5579C75.9426 28.8183 76.2178 28.9481 76.599 28.9473C76.9749 28.9473 77.2467 28.8183 77.4143 28.5601C77.582 28.302 77.6651 27.9173 77.6636 27.4062C77.6636 26.8988 77.5797 26.5183 77.4121 26.2646C77.2444 26.0109 76.97 25.884 76.5888 25.884C76.2129 25.884 75.9404 26.0101 75.7712 26.2624C75.602 26.5146 75.5182 26.8959 75.5197 27.4062Z" fill="black"/>
<path d="M84.7944 29.9789H83.3768V26.9845C83.3768 26.6151 83.3102 26.3369 83.1772 26.1522C83.0441 25.9675 82.8321 25.8752 82.54 25.8752C82.143 25.8752 81.8566 26.0057 81.6806 26.2668C81.5047 26.528 81.4164 26.9612 81.4156 27.5665V29.9789H79.998V24.8526H81.0841L81.2747 25.508H81.3536C81.5102 25.2611 81.7374 25.0656 82.0066 24.946C82.3041 24.8151 82.627 24.7502 82.9528 24.7558C83.5542 24.7558 84.0128 24.9171 84.3286 25.2398C84.6444 25.5625 84.8008 26.028 84.7977 26.6363L84.7944 29.9789Z" fill="black"/>
<path d="M45.2219 39.9088L44.9478 39.2111H44.9106C44.7171 39.4706 44.4649 39.682 44.1742 39.8287C43.861 39.9543 43.5242 40.0127 43.1863 40C42.6863 40 42.2935 39.8594 42.0078 39.5783C41.7221 39.2971 41.5789 38.8966 41.5781 38.3766C41.5781 37.8328 41.771 37.4315 42.1567 37.1726C42.5424 36.9137 43.1239 36.7709 43.9013 36.7442L44.8035 36.7164V36.4938C44.8035 35.9746 44.534 35.7149 43.9949 35.7149C43.5799 35.7149 43.0912 35.8388 42.5288 36.0866L42.0642 35.1385C42.6791 34.8263 43.3621 34.6674 44.0535 34.6757C44.7512 34.6757 45.2858 34.824 45.6572 35.1207C46.0286 35.4175 46.2166 35.8729 46.2211 36.4872V39.9043L45.2219 39.9088ZM44.8035 37.5331L44.2554 37.5509C43.8426 37.5628 43.5359 37.637 43.3352 37.7735C43.2351 37.8414 43.1548 37.9339 43.102 38.0418C43.0492 38.1497 43.0258 38.2693 43.034 38.3888C43.034 38.7834 43.2634 38.9808 43.722 38.9808C43.8657 38.9879 44.0095 38.9669 44.145 38.919C44.2805 38.8711 44.405 38.7971 44.5114 38.7015C44.6106 38.6049 44.6882 38.4888 44.7391 38.3608C44.79 38.2327 44.8131 38.0956 44.8069 37.9582L44.8035 37.5331Z" fill="black"/>
<path d="M50.2786 34.6845C50.5597 34.6742 50.839 34.7336 51.0909 34.8575C51.3427 34.9813 51.5589 35.1656 51.7198 35.3933C52.0672 35.8651 52.2409 36.5127 52.2409 37.3361C52.2409 38.1825 52.0619 38.8383 51.704 39.3034C51.5356 39.5285 51.314 39.7097 51.0585 39.8311C50.803 39.9525 50.5214 40.0104 50.238 40C49.6275 40 49.1489 39.7815 48.8023 39.3446H48.7042L48.4674 39.9087H47.3848V33.3815H48.8023V34.4386C48.8023 34.6489 48.7832 34.9872 48.746 35.4512H48.8023C49.1362 34.9401 49.6282 34.6845 50.2786 34.6845ZM49.8275 35.8039C49.4764 35.8039 49.2207 35.91 49.0606 36.1222C48.8993 36.3347 48.8147 36.6863 48.8091 37.1748V37.3261C48.8091 37.8773 48.8918 38.2719 49.0572 38.51C49.2226 38.7482 49.4858 38.8672 49.8466 38.8672C49.9877 38.8685 50.1266 38.8324 50.2488 38.7627C50.371 38.6931 50.472 38.5924 50.5413 38.4711C50.7135 38.2063 50.7996 37.8216 50.7996 37.3172C50.7996 36.8128 50.7128 36.4345 50.5391 36.1822C50.4637 36.0631 50.3581 35.9655 50.2327 35.8991C50.1072 35.8327 49.9664 35.7999 49.8241 35.8039H49.8275Z" fill="black"/>
<path d="M56.7517 38.3888C56.7517 38.9147 56.5663 39.3153 56.1957 39.5905C55.825 39.8657 55.2713 40.0033 54.5345 40.0033C54.2107 40.0076 53.8871 39.9822 53.568 39.9276C53.311 39.8804 53.0599 39.8058 52.8192 39.7051V38.5468C53.1052 38.6768 53.4032 38.7797 53.709 38.8539C53.9934 38.9299 54.2861 38.9714 54.5807 38.9774C55.095 38.9774 55.3521 38.829 55.3521 38.5323C55.3541 38.4832 55.3462 38.4342 55.3288 38.3881C55.3113 38.3421 55.2848 38.2999 55.2506 38.2641C55.1447 38.1697 55.0254 38.091 54.8965 38.0305C54.7296 37.9437 54.5063 37.8413 54.2278 37.7256C53.9156 37.611 53.6184 37.4601 53.3425 37.276C53.1678 37.1503 53.0273 36.984 52.9331 36.792C52.8429 36.581 52.7994 36.3533 52.8057 36.1244C52.7974 35.9178 52.8423 35.7125 52.9361 35.5276C53.03 35.3428 53.1698 35.1844 53.3425 35.0673C53.6996 34.818 54.2071 34.6934 54.8649 34.6934C55.4962 34.6946 56.1195 34.8324 56.6908 35.0973L56.2633 36.1066C56.0028 35.9953 55.7604 35.9063 55.5337 35.8351C55.3097 35.7654 55.0761 35.7301 54.8412 35.7305C54.4232 35.7305 54.2142 35.8417 54.2142 36.0643C54.217 36.1309 54.2371 36.1957 54.2724 36.2526C54.3077 36.3095 54.3572 36.3565 54.4161 36.3892C54.698 36.5515 54.9944 36.6882 55.3014 36.7976C55.6163 36.9126 55.9159 37.065 56.1934 37.2516C56.3706 37.3779 56.5142 37.5448 56.6118 37.7378C56.7076 37.9416 56.7554 38.1641 56.7517 38.3888Z" fill="black"/>
<path d="M40.54 15.4601V16.7987H38.5789V20.5864H37.1602V15.4601H40.54Z" fill="black"/>
<path d="M40.8468 39.9054V38.5679H38.58V33.376H37.1602V39.9054H40.8468Z" fill="black"/>
<path d="M38.5789 29.9788H37.1602V24.8525H38.5789V29.9788Z" fill="black"/>
<path d="M37.8693 24.2417C38.2966 24.2417 38.643 23.9114 38.643 23.504C38.643 23.0965 38.2966 22.7662 37.8693 22.7662C37.4421 22.7662 37.0957 23.0965 37.0957 23.504C37.0957 23.9114 37.4421 24.2417 37.8693 24.2417Z" fill="black"/>
<path d="M73.1894 29.9788H71.7695V24.8525H73.1894V29.9788Z" fill="black"/>
<path d="M72.4787 24.2417C72.906 24.2417 73.2523 23.9114 73.2523 23.504C73.2523 23.0965 72.906 22.7662 72.4787 22.7662C72.0514 22.7662 71.7051 23.0965 71.7051 23.504C71.7051 23.9114 72.0514 24.2417 72.4787 24.2417Z" fill="black"/>
<path d="M59.3902 20.5853H57.9727V15.4601H59.3902V20.5853Z" fill="black"/>
<path d="M58.6799 14.8492C59.1072 14.8492 59.4535 14.5189 59.4535 14.1115C59.4535 13.7041 59.1072 13.3738 58.6799 13.3738C58.2526 13.3738 57.9062 13.7041 57.9062 14.1115C57.9062 14.5189 58.2526 14.8492 58.6799 14.8492Z" fill="black"/>
</svg>
