<svg width="368" height="165" viewBox="0 0 368 165" fill="none" xmlns="http://www.w3.org/2000/svg">
<g clip-path="url(#clip0_9034_2493)">
<path d="M41.4432 0H0.00195312V13.7515H41.4432V0Z" fill="white"/>
<path d="M13.8125 41.25L13.8125 0L-0.00277424 0L-0.00277424 41.25H13.8125Z" fill="white"/>
<path d="M41.4432 151.249H0.00195312V165H41.4432V151.249Z" fill="white"/>
<path d="M0.00195313 123.75L0.00195312 165H13.8172L13.8172 123.75H0.00195313Z" fill="white"/>
<path d="M0.00195313 82.5047L0.00195312 110.003H13.8172L13.8172 82.5047H0.00195313Z" fill="white"/>
<path d="M6.90884 68.5146C10.6576 68.5146 13.6966 65.4896 13.6966 61.7581C13.6966 58.0267 10.6576 55.0017 6.90884 55.0017C3.16007 55.0017 0.121094 58.0267 0.121094 61.7581C0.121094 65.4896 3.16007 68.5146 6.90884 68.5146Z" fill="white"/>
<path d="M96.6994 165.005H138.141V151.253H96.6994V165.005Z" fill="white"/>
<path d="M124.324 123.755V165.005H138.139V123.755H124.324Z" fill="white"/>
<path d="M96.6994 13.7517L138.141 13.7517V0.000181198L96.6994 0.000181198V13.7517Z" fill="white"/>
<path d="M138.135 41.25V0L124.319 0V41.25H138.135Z" fill="white"/>
<path d="M138.135 82.4955V54.9971H124.319V82.4955H138.135Z" fill="white"/>
<path d="M131.233 109.998C134.982 109.998 138.021 106.973 138.021 103.242C138.021 99.5105 134.982 96.4856 131.233 96.4856C127.484 96.4856 124.445 99.5105 124.445 103.242C124.445 106.973 127.484 109.998 131.233 109.998Z" fill="white"/>
<path d="M178.078 85.3C174.657 85.3 171.982 84.3606 170.055 82.4818C168.127 80.603 167.165 77.9408 167.168 74.4953C167.168 70.9518 168.058 68.2131 169.838 66.2792C171.618 64.3453 174.077 63.3768 177.216 63.3738C180.216 63.3738 182.554 64.2245 184.23 65.9258C185.905 67.6271 186.747 69.9787 186.757 72.9806V75.7804H173.043C173.101 77.4175 173.588 78.6966 174.504 79.6177C175.421 80.5387 176.699 80.9977 178.341 80.9946C179.563 81.0003 180.782 80.8678 181.975 80.5999C183.205 80.3014 184.401 79.8769 185.544 79.3331V83.7945C184.521 84.3053 183.436 84.6833 182.316 84.9191C180.921 85.1932 179.5 85.3209 178.078 85.3ZM177.262 67.4726C176.724 67.4449 176.186 67.535 175.686 67.7364C175.187 67.9378 174.738 68.2457 174.371 68.6385C173.613 69.5747 173.191 70.7363 173.172 71.9386H181.306C181.285 70.5158 180.911 69.4157 180.186 68.6385C179.811 68.2469 179.356 67.9401 178.851 67.739C178.347 67.5378 177.805 67.447 177.262 67.4726Z" fill="white"/>
<path d="M209.905 84.9144H204.104V72.5674C204.104 71.0435 203.832 69.896 203.288 69.1341C202.744 68.3722 201.877 67.9912 200.687 67.9912C199.064 67.9912 197.891 68.5297 197.169 69.6069C196.447 70.684 196.085 72.4725 196.085 74.9725V84.9144H190.289V63.773H194.716L195.495 66.4765H195.818C196.46 65.4601 197.389 64.6541 198.488 64.1586C199.704 63.6185 201.025 63.3506 202.357 63.3737C204.816 63.3737 206.691 64.0392 207.982 65.3703C209.274 66.7014 209.915 68.6261 209.905 71.1445V84.9144Z" fill="white"/>
<path d="M228.198 84.9144L227.078 82.0411H226.926C226.132 83.1103 225.1 83.9809 223.91 84.584C222.63 85.1039 221.253 85.3464 219.871 85.2954C217.832 85.2954 216.228 84.7155 215.056 83.5558C213.885 82.3961 213.298 80.7437 213.295 78.5987C213.295 76.3557 214.085 74.7002 215.665 73.6323C217.245 72.5644 219.623 71.9753 222.799 71.8652L226.488 71.7504V70.8324C226.488 68.6905 225.386 67.6195 223.181 67.6195C221.48 67.6195 219.492 68.129 217.187 69.1525L215.269 65.2556C217.783 63.9644 220.578 63.3072 223.407 63.3416C226.257 63.3416 228.443 63.9536 229.965 65.1776C231.486 66.4016 232.247 68.2804 232.247 70.8141V84.9144H228.198ZM226.488 75.1149L224.242 75.1929C222.557 75.2419 221.303 75.5479 220.479 76.1109C220.071 76.3912 219.743 76.7718 219.526 77.2158C219.31 77.6598 219.212 78.152 219.243 78.6446C219.243 80.2725 220.183 81.0864 222.061 81.0864C222.649 81.1163 223.237 81.0295 223.792 80.8309C224.346 80.6323 224.855 80.326 225.289 79.9297C225.695 79.5324 226.012 79.0544 226.22 78.5269C226.428 77.9995 226.523 77.4344 226.497 76.8682L226.488 75.1149Z" fill="white"/>
<path d="M262.579 78.64C262.579 80.8095 261.823 82.4619 260.311 83.5972C258.798 84.7324 256.532 85.3 253.514 85.3C252.189 85.3176 250.867 85.2131 249.562 84.9879C248.511 84.7923 247.484 84.4845 246.5 84.0699V79.3009C247.671 79.8382 248.891 80.2624 250.143 80.5678C251.303 80.8851 252.499 81.0578 253.703 81.0819C255.805 81.0819 256.861 80.476 256.861 79.2459C256.869 79.043 256.836 78.8406 256.764 78.6506C256.692 78.4606 256.582 78.2869 256.442 78.1397C256.009 77.7512 255.523 77.4266 254.998 77.1758C254.31 76.8117 253.397 76.3924 252.259 75.9181C250.989 75.4298 249.78 74.7952 248.658 74.0271C247.945 73.5073 247.37 72.8218 246.984 72.0304C246.616 71.1598 246.438 70.2209 246.463 69.2765C246.429 68.4243 246.613 67.5774 246.996 66.8149C247.38 66.0524 247.952 65.3991 248.658 64.916C250.124 63.8878 252.195 63.3738 254.883 63.3738C257.466 63.3788 260.016 63.9476 262.353 65.0399L260.606 69.1984C259.54 68.7394 258.544 68.3722 257.618 68.0831C256.703 67.7865 255.748 67.6317 254.786 67.6241C253.075 67.6241 252.222 68.0831 252.222 69.0011C252.234 69.2765 252.316 69.5445 252.46 69.7798C252.605 70.0151 252.807 70.2099 253.048 70.3459C254.202 71.0125 255.414 71.5762 256.668 72.0304C257.958 72.5021 259.185 73.1312 260.32 73.9031C261.043 74.426 261.63 75.1138 262.031 75.909C262.419 76.7661 262.607 77.7 262.579 78.64Z" fill="white"/>
<path d="M280.76 78.6398C280.76 80.8094 280.003 82.4618 278.487 83.597C276.971 84.7323 274.707 85.2999 271.695 85.2999C270.369 85.3174 269.045 85.2129 267.738 84.9878C266.689 84.7922 265.664 84.4844 264.681 84.0698V79.3008C265.85 79.8381 267.069 80.2623 268.319 80.5676C269.482 80.885 270.679 81.0576 271.884 81.0817C273.986 81.0817 275.038 80.4697 275.038 79.2457C275.047 79.0427 275.014 78.84 274.942 78.6499C274.87 78.4598 274.76 78.2862 274.618 78.1395C274.188 77.7489 273.701 77.4241 273.175 77.1757C272.492 76.8115 271.581 76.3923 270.44 75.918C269.169 75.4307 267.961 74.796 266.839 74.0269C266.122 73.5196 265.541 72.8451 265.147 72.0624C264.776 71.1924 264.598 70.2531 264.626 69.3085C264.589 68.4559 264.772 67.6081 265.156 66.8452C265.54 66.0822 266.113 65.4293 266.821 64.948C268.284 63.9198 270.357 63.4058 273.041 63.4058C275.624 63.4108 278.174 63.9796 280.511 65.0719L278.764 69.2304C277.699 68.7714 276.703 68.4042 275.78 68.1151C274.866 67.8188 273.911 67.664 272.949 67.6561C271.238 67.6561 270.38 68.1151 270.38 69.0331C270.392 69.3091 270.475 69.5775 270.62 69.8129C270.765 70.0483 270.968 70.2428 271.211 70.3779C272.364 71.0454 273.576 71.6092 274.83 72.0624C276.12 72.533 277.345 73.1621 278.478 73.9351C279.203 74.4564 279.79 75.1446 280.189 75.9409C280.582 76.7857 280.778 77.7087 280.76 78.6398Z" fill="white"/>
<path d="M297.61 84.9144L296.504 82.0457H296.352C295.558 83.1148 294.526 83.9854 293.336 84.5885C292.055 85.1084 290.678 85.351 289.296 85.2999C287.258 85.2999 285.653 84.7201 284.482 83.5603C283.311 82.4006 282.724 80.7482 282.721 78.6032C282.721 76.3602 283.511 74.7048 285.091 73.6368C286.671 72.5689 289.049 71.9799 292.224 71.8697L295.913 71.755V70.837C295.913 68.695 294.811 67.624 292.607 67.624C290.906 67.624 288.918 68.1335 286.613 69.157L284.694 65.2602C287.203 63.9703 289.991 63.3115 292.815 63.3416C295.664 63.3416 297.85 63.9536 299.372 65.1775C300.894 66.4015 301.654 68.2804 301.654 70.814V84.9144H297.61ZM295.9 75.1148L293.654 75.1928C291.969 75.2418 290.715 75.5478 289.891 76.1108C289.483 76.3911 289.155 76.7717 288.938 77.2157C288.722 77.6597 288.624 78.1519 288.655 78.6445C288.655 80.2739 289.578 81.0864 291.468 81.0864C292.056 81.116 292.645 81.029 293.199 80.8305C293.753 80.6319 294.262 80.3257 294.696 79.9297C295.101 79.5318 295.418 79.0537 295.626 78.5264C295.834 77.9991 295.929 77.4342 295.904 76.8682L295.9 75.1148Z" fill="white"/>
<path d="M326.071 84.9145H320.275V72.5675C320.275 71.0436 320.003 69.8961 319.459 69.1342C318.915 68.3722 318.043 67.9913 316.853 67.9913C315.23 67.9913 314.057 68.5298 313.335 69.6069C312.613 70.684 312.251 72.4726 312.251 74.9726V84.9145H306.455V63.7731H310.886L311.666 66.4766H311.989C312.629 65.4582 313.558 64.6516 314.658 64.1586C315.875 63.618 317.195 63.35 318.527 63.3738C320.987 63.3738 322.862 64.0393 324.153 65.3704C325.444 66.7015 326.084 68.6262 326.071 71.1446V84.9145Z" fill="white"/>
<path d="M339.499 85.2999C332.886 85.2999 329.58 81.6861 329.58 74.4584C329.58 70.8629 330.479 68.1166 332.278 66.2194C334.076 64.3222 336.654 63.3737 340.011 63.3737C342.298 63.3354 344.564 63.8272 346.628 64.8103L344.922 69.2763C343.999 68.9091 343.149 68.6031 342.372 68.3583C341.608 68.1279 340.814 68.0103 340.015 68.0095C337 68.0095 335.492 70.1408 335.492 74.4033C335.492 78.5404 337 80.609 340.015 80.609C341.066 80.6149 342.111 80.4601 343.114 80.15C344.124 79.8264 345.084 79.3628 345.964 78.773V83.7118C345.092 84.2758 344.132 84.6915 343.123 84.9419C341.933 85.1974 340.717 85.3175 339.499 85.2999Z" fill="white"/>
<path d="M359.332 85.3C355.911 85.3 353.238 84.3606 351.313 82.4818C349.389 80.603 348.425 77.9408 348.422 74.4953C348.422 70.9518 349.312 68.2131 351.092 66.2792C352.872 64.3453 355.331 63.3768 358.47 63.3738C361.47 63.3738 363.807 64.2245 365.479 65.9258C367.151 67.6271 367.992 69.9787 368.001 72.9806V75.7804H354.297C354.361 77.4191 354.845 78.6997 355.758 79.6177C356.671 80.5357 357.953 80.9946 359.6 80.9946C360.82 81.0001 362.038 80.8677 363.229 80.5999C364.461 80.3015 365.658 79.8769 366.802 79.3331V83.7945C365.771 84.3043 364.679 84.6807 363.551 84.9145C362.162 85.1889 360.748 85.3181 359.332 85.3ZM358.516 67.4726C357.978 67.4449 357.44 67.535 356.94 67.7364C356.441 67.9378 355.992 68.2457 355.625 68.6385C354.868 69.5751 354.447 70.7368 354.43 71.9386H362.565C362.537 70.5158 362.163 69.4157 361.444 68.6385C361.068 68.2473 360.612 67.9408 360.107 67.7397C359.602 67.5386 359.059 67.4475 358.516 67.4726Z" fill="white"/>
<path d="M182.278 123.663H176.482V111.311C176.482 109.787 176.205 108.64 175.661 107.878C175.117 107.116 174.25 106.735 173.06 106.735C171.437 106.735 170.265 107.274 169.542 108.351C168.82 109.428 168.458 111.215 168.458 113.712V123.663H162.662V102.517H167.094L167.873 105.22H168.196C168.836 104.202 169.765 103.395 170.866 102.902C172.08 102.362 173.399 102.094 174.73 102.118C177.189 102.118 179.064 102.783 180.355 104.114C181.647 105.445 182.288 107.365 182.278 109.875V123.663Z" fill="white"/>
<path d="M206.692 123.663H200.895V111.311C200.895 109.787 200.623 108.64 200.079 107.878C199.535 107.116 198.664 106.735 197.474 106.735C195.851 106.735 194.679 107.274 193.96 108.351C193.241 109.428 192.879 111.215 192.876 113.712V123.663H187.08V102.517H191.507L192.286 105.22H192.609C193.249 104.202 194.178 103.396 195.279 102.903C196.495 102.362 197.816 102.094 199.148 102.118C201.607 102.118 203.482 102.783 204.773 104.114C206.065 105.445 206.704 107.366 206.692 109.875V123.663Z" fill="white"/>
<path d="M230.799 113.051C230.799 116.493 229.888 119.186 228.065 121.129C226.242 123.072 223.701 124.044 220.442 124.044C218.557 124.082 216.695 123.621 215.047 122.708C213.489 121.822 212.237 120.487 211.455 118.88C210.584 117.062 210.154 115.065 210.201 113.051C210.201 109.593 211.106 106.906 212.917 104.991C214.727 103.075 217.274 102.117 220.558 102.117C222.441 102.079 224.302 102.535 225.953 103.439C227.507 104.319 228.759 105.645 229.545 107.244C230.417 109.054 230.847 111.044 230.799 113.051ZM216.108 113.051C216.108 115.144 216.454 116.727 217.145 117.801C217.837 118.875 218.962 119.411 220.521 119.408C222.058 119.408 223.169 118.875 223.855 117.811C224.54 116.746 224.88 115.159 224.874 113.051C224.874 110.958 224.531 109.388 223.845 108.341C223.163 107.295 222.038 106.772 220.479 106.772C218.921 106.772 217.818 107.29 217.136 108.332C216.454 109.374 216.108 110.944 216.108 113.051Z" fill="white"/>
<path d="M239.476 123.663L231.379 102.517H237.443L241.547 114.565C241.981 115.977 242.268 117.429 242.404 118.898H242.52C242.63 117.426 242.917 115.971 243.373 114.565L247.458 102.517H253.522L245.425 123.663H239.476Z" fill="white"/>
<path d="M268.887 123.663L267.767 120.789H267.615C266.824 121.859 265.793 122.73 264.603 123.332C263.323 123.852 261.946 124.095 260.564 124.044C258.526 124.044 256.92 123.464 255.745 122.304C254.571 121.144 253.985 119.492 253.988 117.347C253.988 115.104 254.777 113.449 256.354 112.381C257.931 111.313 260.31 110.725 263.492 110.618L267.181 110.503V109.585C267.181 107.443 266.077 106.372 263.87 106.372C262.173 106.372 260.175 106.883 257.876 107.905L255.957 104.009C258.47 102.718 261.264 102.062 264.092 102.099C266.941 102.099 269.127 102.711 270.649 103.935C272.17 105.159 272.93 107.038 272.927 109.572V123.663H268.887ZM267.181 113.863L264.935 113.941C263.254 113.99 262 114.296 261.173 114.859C260.764 115.14 260.436 115.52 260.22 115.964C260.003 116.408 259.906 116.9 259.937 117.393C259.937 119.018 260.859 119.835 262.75 119.835C263.338 119.864 263.926 119.776 264.48 119.578C265.034 119.379 265.543 119.073 265.978 118.678C266.383 118.28 266.7 117.802 266.908 117.275C267.116 116.748 267.21 116.183 267.186 115.617L267.181 113.863Z" fill="white"/>
<path d="M286.692 119.445C287.934 119.405 289.163 119.182 290.34 118.784V123.08C288.653 123.769 286.84 124.097 285.018 124.044C282.697 124.044 281.007 123.461 279.946 122.295C278.885 121.129 278.358 119.379 278.364 117.044V106.845H275.598V104.408L278.789 102.476L280.463 98.0142H284.152V102.517H290.105V106.845H284.161V117.044C284.13 117.383 284.177 117.724 284.298 118.042C284.418 118.359 284.609 118.646 284.857 118.88C285.38 119.283 286.032 119.483 286.692 119.445Z" fill="white"/>
<path d="M323.485 113.051C323.485 116.493 322.573 119.186 320.75 121.129C318.927 123.072 316.386 124.044 313.128 124.044C311.242 124.082 309.38 123.621 307.733 122.708C306.175 121.822 304.923 120.487 304.14 118.88C303.269 117.062 302.84 115.065 302.886 113.051C302.886 109.593 303.792 106.906 305.602 104.991C307.413 103.075 309.96 102.117 313.243 102.117C315.127 102.079 316.988 102.535 318.638 103.439C320.193 104.319 321.445 105.645 322.23 107.244C323.103 109.054 323.533 111.044 323.485 113.051ZM308.793 113.051C308.793 115.144 309.139 116.727 309.831 117.801C310.522 118.875 311.648 119.411 313.206 119.408C314.743 119.408 315.855 118.875 316.54 117.811C317.226 116.746 317.565 115.159 317.559 113.051C317.559 110.958 317.216 109.388 316.531 108.341C315.845 107.295 314.723 106.772 313.165 106.772C311.628 106.772 310.513 107.292 309.822 108.332C309.13 109.373 308.787 110.946 308.793 113.051Z" fill="white"/>
<path d="M346.721 123.663H340.925V111.311C340.925 109.787 340.653 108.64 340.108 107.878C339.564 107.116 338.697 106.735 337.503 106.735C335.88 106.735 334.709 107.274 333.989 108.351C333.27 109.428 332.909 111.215 332.906 113.712V123.663H327.109V102.517H331.55L332.329 105.22H332.652C333.292 104.202 334.221 103.395 335.322 102.902C336.538 102.362 337.859 102.094 339.191 102.118C341.65 102.118 343.525 102.783 344.817 104.114C346.108 105.445 346.747 107.365 346.735 109.875L346.721 123.663Z" fill="white"/>
<path d="M184.913 164.624L183.792 161.746H183.64C182.848 162.816 181.818 163.688 180.629 164.293C179.348 164.811 177.971 165.052 176.589 165C174.545 165 172.939 164.42 171.771 163.261C170.602 162.101 170.017 160.448 170.014 158.303C170.014 156.06 170.802 154.405 172.379 153.337C173.956 152.269 176.334 151.68 179.513 151.57L183.202 151.455V150.537C183.202 148.395 182.1 147.324 179.896 147.324C178.199 147.324 176.2 147.835 173.901 148.857L172.001 144.947C174.515 143.659 177.308 143.003 180.135 143.037C182.988 143.037 185.174 143.649 186.693 144.873C188.211 146.097 188.98 147.976 188.998 150.51V164.605L184.913 164.624ZM183.202 154.824L180.961 154.898C179.273 154.947 178.019 155.253 177.198 155.816C176.789 156.096 176.46 156.477 176.245 156.922C176.029 157.367 175.933 157.861 175.967 158.354C175.967 159.982 176.904 160.796 178.78 160.796C179.367 160.825 179.955 160.739 180.509 160.541C181.063 160.343 181.572 160.038 182.008 159.644C182.413 159.245 182.73 158.766 182.939 158.238C183.147 157.71 183.241 157.144 183.216 156.578L183.202 154.824Z" fill="white"/>
<path d="M205.584 143.074C206.734 143.031 207.876 143.276 208.906 143.787C209.935 144.298 210.82 145.058 211.478 145.998C212.898 147.944 213.608 150.615 213.608 154.012C213.608 157.503 212.876 160.208 211.413 162.127C210.724 163.055 209.818 163.803 208.774 164.303C207.729 164.804 206.577 165.043 205.418 165C202.922 165 200.965 164.099 199.548 162.297H199.147L198.179 164.624H193.752V137.699H199.548V142.059C199.548 142.927 199.47 144.322 199.318 146.236H199.548C200.913 144.128 202.925 143.074 205.584 143.074ZM203.74 147.691C202.304 147.691 201.259 148.129 200.604 149.004C199.945 149.881 199.599 151.331 199.576 153.346V153.97C199.576 156.244 199.914 157.872 200.59 158.854C201.267 159.836 202.343 160.327 203.818 160.327C204.395 160.333 204.963 160.184 205.463 159.896C205.962 159.609 206.375 159.194 206.659 158.693C207.363 157.601 207.715 156.014 207.715 153.934C207.715 151.853 207.36 150.292 206.65 149.252C206.342 148.76 205.91 148.358 205.397 148.084C204.884 147.81 204.308 147.675 203.726 147.691H203.74Z" fill="white"/>
<path d="M232.053 158.354C232.053 160.523 231.295 162.176 229.779 163.311C228.264 164.446 226 165.014 222.987 165.014C221.663 165.031 220.34 164.927 219.035 164.702C217.984 164.507 216.958 164.199 215.973 163.784V159.006C217.143 159.542 218.361 159.966 219.612 160.272C220.775 160.586 221.972 160.757 223.176 160.782C225.279 160.782 226.33 160.17 226.33 158.946C226.338 158.743 226.306 158.541 226.235 158.351C226.163 158.161 226.055 157.987 225.915 157.84C225.482 157.45 224.994 157.126 224.467 156.876C223.785 156.518 222.872 156.096 221.733 155.618C220.456 155.146 219.241 154.523 218.113 153.764C217.399 153.245 216.824 152.559 216.439 151.767C216.07 150.897 215.893 149.958 215.918 149.013C215.884 148.161 216.068 147.314 216.451 146.552C216.835 145.789 217.407 145.136 218.113 144.653C219.573 143.625 221.648 143.111 224.338 143.111C226.919 143.115 229.468 143.684 231.804 144.777L230.056 148.94C228.991 148.481 227.999 148.114 227.073 147.82C226.157 147.533 225.202 147.387 224.241 147.388C222.532 147.388 221.677 147.847 221.677 148.765C221.689 149.04 221.771 149.308 221.915 149.542C222.06 149.777 222.262 149.971 222.503 150.106C223.656 150.775 224.867 151.339 226.123 151.79C227.411 152.265 228.635 152.893 229.77 153.663C230.495 154.184 231.082 154.872 231.481 155.669C231.873 156.509 232.068 157.427 232.053 158.354Z" fill="white"/>
<path d="M165.771 63.7729V69.2947H157.752V84.9189H151.951V63.7729H165.771Z" fill="white"/>
<path d="M167.025 164.61V159.093H157.757V137.676H151.951V164.61H167.025Z" fill="white"/>
<path d="M157.752 123.663H151.951V102.517H157.752V123.663Z" fill="white"/>
<path d="M154.851 99.9969C156.598 99.9969 158.014 98.6345 158.014 96.9538C158.014 95.2731 156.598 93.9106 154.851 93.9106C153.104 93.9106 151.688 95.2731 151.688 96.9538C151.688 98.6345 153.104 99.9969 154.851 99.9969Z" fill="white"/>
<path d="M299.27 123.663H293.465V102.517H299.27V123.663Z" fill="white"/>
<path d="M296.366 99.9969C298.113 99.9969 299.53 98.6345 299.53 96.9538C299.53 95.2731 298.113 93.9106 296.366 93.9106C294.619 93.9106 293.203 95.2731 293.203 96.9538C293.203 98.6345 294.619 99.9969 296.366 99.9969Z" fill="white"/>
<path d="M242.843 84.9143H237.047V63.7729H242.843V84.9143Z" fill="white"/>
<path d="M239.943 61.253C241.69 61.253 243.106 59.8906 243.106 58.2099C243.106 56.5292 241.69 55.1667 239.943 55.1667C238.196 55.1667 236.779 56.5292 236.779 58.2099C236.779 59.8906 238.196 61.253 239.943 61.253Z" fill="white"/>
</g>
<defs>
<clipPath id="clip0_9034_2493">
<rect width="368" height="165" fill="white"/>
</clipPath>
</defs>
</svg>
