<svg width="147" height="41" viewBox="0 0 147 41" fill="none" xmlns="http://www.w3.org/2000/svg">
<g clip-path="url(#clip0_9034_2939)">
<path fill-rule="evenodd" clip-rule="evenodd" d="M15.2015 15.3805C15.4992 15.2597 18.3557 17.5965 18.8264 17.9211C20.0293 18.7505 21.2216 19.7062 22.4129 20.5698C22.9911 20.989 23.2497 20.7525 22.1606 22.3668C21.5283 23.304 18.8024 28.0767 18.545 28.2857C18.3215 28.4672 12.0583 23.6188 11.3274 23.1091C10.9695 22.8597 10.6116 22.7697 10.9488 22.244C11.628 21.185 15.0485 15.4425 15.2015 15.3805H15.2015ZM16.4881 31.6017C16.0824 32.5139 15.0395 34.0861 14.4745 34.9678C13.7838 36.0457 13.1073 37.2078 12.439 38.3099C11.8422 39.2942 10.5881 40.8323 10.8114 42.0384C11.1566 43.9031 12.9453 43.7469 14.2501 43.701C17.5328 43.5853 20.8122 43.7034 24.0826 43.603C25.7419 43.552 27.4166 43.5978 29.0822 43.5392C29.8998 43.5105 30.736 43.4658 31.5525 43.4683C32.2043 43.4703 33.4372 43.4955 34.0295 43.3729C34.1618 42.3868 34.0871 41.0382 34.0871 40.0097L34.0583 29.7297C34.0476 27.4713 34.0529 25.1468 33.9849 22.8938C33.916 20.6142 33.9929 18.3027 33.9387 16.0279C33.9165 15.0973 33.9956 9.594 33.8416 9.21808C33.6311 8.70428 32.3894 7.98027 31.8213 8.00807C30.8704 8.05469 30.4973 8.72926 30.0343 9.49644C29.2047 10.8709 28.3585 12.2732 27.5076 13.63C26.7347 14.8625 25.798 16.6469 24.9564 17.7364C23.4441 16.7781 21.9398 15.585 20.4797 14.5134C19.6986 13.9402 19.0278 13.4089 18.2102 12.8831C17.1265 12.1863 17.2397 11.7397 17.963 10.735C18.9794 9.32297 20.0358 7.38967 20.9681 5.85528C21.4472 5.06678 22.0415 4.20502 22.4842 3.42757C23.0192 2.48805 23.1037 1.25705 22.2813 0.477217C21.5301 -0.235095 20.443 -0.129603 19.7697 0.658966C19.2808 1.23158 18.6671 2.38366 18.244 3.07666C17.7464 3.89188 17.242 4.70421 16.748 5.52171C16.2719 6.30957 15.685 7.16848 15.2461 7.95308C14.6444 9.02848 14.7009 9.57441 13.3913 9.66041C12.3352 9.72974 11.3905 10.1308 11.5717 11.5482C11.7315 12.7984 12.4139 12.9136 11.5355 14.1466C10.9626 14.9506 10.5067 15.7624 9.98876 16.6055C9.50877 17.3868 8.90954 18.2511 8.516 19.0687C7.85516 20.4416 7.58848 20.146 6.3508 20.3052C5.09203 20.4671 4.94727 21.6905 5.27083 22.8098C5.68775 24.252 5.42168 24.2094 4.6416 25.3571C4.14164 26.0927 3.64777 27.0036 3.16922 27.7814C2.66933 28.5939 2.16417 29.4073 1.6721 30.2252C1.28128 30.875 0.417721 32.0909 0.180333 32.7145C-0.206475 33.7306 0.0088406 35.0348 1.02226 35.4689C2.02982 35.9005 2.93435 35.4649 3.50483 34.5123L6.46841 29.6071C6.967 28.7891 7.51809 27.9788 7.95702 27.128C8.53199 26.0135 8.83729 25.7535 9.82233 26.603C10.5636 27.2424 11.2806 27.7238 12.0591 28.2946C13.5388 29.3794 15.0422 30.4656 16.4881 31.6017V31.6017Z" fill="#201E1E"/>
<path fill-rule="evenodd" clip-rule="evenodd" d="M146.968 18.9419C146.466 18.8171 145.171 18.9304 144.556 18.8995C143.237 18.8333 143.569 19.071 143.569 17.3555C143.569 14.0238 143.959 14.434 142.503 14.4364C142.275 14.4367 141.463 14.3887 141.317 14.4942C141.237 14.6383 141.291 16.9645 141.272 17.3632C141.232 18.2024 140.632 18.7128 139.929 18.8672C139.49 18.9636 135.054 18.9654 134.582 18.8784C134.549 18.7617 134.575 17.1943 134.58 16.9404C134.587 16.5405 134.937 15.8509 135.168 15.5258C135.518 15.0317 135.917 14.9892 136.349 14.7649C136.776 14.5437 137.645 14.801 137.949 14.8015L137.923 12.4059C137.627 11.9407 135.722 11.9541 135.281 12.1924C134.512 12.6083 134.19 12.5662 133.35 13.4921C132.976 13.9045 132.285 15.1572 132.216 15.7008C132.181 15.9747 132.075 16.1177 132.054 16.3788C132.033 16.6408 132.017 16.9098 131.997 17.1733C131.974 17.4854 132.039 18.6673 131.959 18.8452L130.117 18.9115L130.096 21.5385L131.968 21.5505L132.023 35.7544L134.476 35.7676C134.684 35.521 134.582 26.2633 134.582 25.1289C134.582 24.2696 134.625 23.2745 134.586 22.4333C134.536 21.3513 134.439 21.5292 136.136 21.5419C136.726 21.5464 140.71 21.3808 140.896 21.6642C141.027 21.8639 140.948 26.3448 140.948 26.9692C140.948 30.1093 140.525 33.2387 143.198 35.2144C144.157 35.9233 145.987 36.3196 146.967 35.5282L146.968 33.1879C146.795 33.1657 146.403 33.2512 146.203 33.2681C145.996 33.2857 145.609 33.2366 145.39 33.2126C144.946 33.1639 144.586 32.8046 144.271 32.5101C143.46 31.7535 143.569 30.4331 143.569 29.3805C143.569 28.0796 143.569 26.7788 143.569 25.4779C143.569 24.6797 143.473 22.2453 143.592 21.6324C143.87 21.4388 146.429 21.5436 146.968 21.5436V18.9419L146.968 18.9419Z" fill="#201E1E"/>
<path fill-rule="evenodd" clip-rule="evenodd" d="M94.6316 26.0489C94.5632 25.7956 95.3021 23.8926 95.5037 23.5829C95.9931 22.8314 96.3868 22.375 97.1262 21.9118C98.705 20.9229 100.419 21.5146 101.593 22.8863C102.192 23.5864 102.354 24.3127 102.633 25.1691C102.837 25.7957 102.965 26.168 102.323 26.1481C101.799 26.1319 101.263 26.1441 100.738 26.1441C99.701 26.1441 98.6641 26.1441 97.6272 26.1441C97.3079 26.1441 94.6774 26.2182 94.6316 26.0489V26.0489ZM98.2033 18.7197C92.1219 19.3523 89.9705 28.0966 93.4877 33.0202C95.2612 35.5029 98.2313 36.6329 100.999 35.6654C102.151 35.2626 103.418 34.3904 104.157 33.3235C105.565 31.2903 105.734 31.0479 103.166 31.1852C102.188 31.2376 102.239 31.7165 101.604 32.2702C101.169 32.6495 100.297 33.0505 99.7518 33.1546C98.3011 33.4315 96.9144 32.89 95.9219 31.703C95.447 31.1349 95.179 30.6041 94.8842 29.9071C94.3999 28.7621 94.8615 28.6496 95.8325 28.7147C97.543 28.8295 99.4382 28.7458 101.17 28.7458C102.027 28.7458 102.945 28.7032 103.792 28.747C104.58 28.7877 105.546 29.0265 105.664 27.8845C105.819 26.3835 105.441 24.3509 104.842 22.9873C103.59 20.135 101.113 18.4171 98.2033 18.7197V18.7197Z" fill="#201E1E"/>
<path fill-rule="evenodd" clip-rule="evenodd" d="M77.6954 28.2067C78.1965 28.1735 78.6397 28.1921 79.1329 28.1764C79.9098 28.1517 79.6423 28.3039 79.6549 29.1265C79.672 30.2528 79.529 30.6339 78.9044 31.5056C77.9098 32.8935 76.211 33.2744 74.7001 33.1881C73.0719 33.0952 72.0152 31.002 73.1088 29.5317C73.9046 28.4618 76.5217 28.2843 77.6954 28.2067H77.6954ZM70.7538 23.8282C71.2044 23.9063 73.3013 24.0455 73.5385 23.691C73.7151 23.4271 73.7304 23.0059 74.0255 22.5777C74.236 22.2722 74.4979 21.9727 74.8052 21.7862C75.4566 21.3908 76.6437 21.3738 77.359 21.5364C78.4257 21.7789 79.537 22.8274 79.6283 24.0006C79.6525 24.3117 79.7992 25.2419 79.5008 25.3785C79.373 25.437 77.0113 25.5243 76.6849 25.5388C75.3716 25.5972 73.1113 26.1877 71.9845 26.9606C68.9956 29.0107 69.5462 33.5792 72.5022 35.3233C73.9063 36.1517 76.0069 36.2233 77.4793 35.5834C78.232 35.2563 78.7426 34.9314 79.3535 34.3481C79.4455 34.2602 79.6797 33.9853 79.7736 34.0995C79.779 34.1059 79.9792 34.6554 79.9868 34.6934C80.0289 34.902 80.3295 35.6784 80.4681 35.8259L82.2826 35.7661C82.4514 35.4959 82.3616 28.0427 82.3616 27.0644C82.3616 24.3957 82.5982 22.1749 80.549 20.2723C78.8993 18.7405 76.3483 18.1956 74.3206 19.0318C73.43 19.3991 72.5112 19.9496 71.9157 20.793C71.3356 21.6147 70.6883 22.7507 70.7538 23.8281V23.8282Z" fill="#201E1E"/>
<path fill-rule="evenodd" clip-rule="evenodd" d="M121.16 21.4166C122.429 21.2711 123.82 21.9767 124.629 23.0529C125.394 24.0724 126.036 25.6913 126.003 27.0228C125.965 28.5737 125.781 30.0377 124.858 31.2968C124.018 32.4436 123.041 33.2003 121.659 33.2683C115.724 33.5605 115.054 22.1166 121.16 21.4166L121.16 21.4166ZM114.276 27.6671C114.662 38.7458 128.614 38.8161 128.586 27.0413C128.576 22.5216 125.384 18.509 121.135 18.7167C116.873 18.9251 114.119 23.1808 114.276 27.6671Z" fill="#201E1E"/>
<path fill-rule="evenodd" clip-rule="evenodd" d="M52.1762 23.7962C52.4628 22.3529 51.2537 20.3995 50.1927 19.6037C48.8973 18.6319 46.808 18.4336 45.3318 18.8903C41.7528 19.9975 40.6963 24.3385 42.9126 26.7664C44.0333 27.9941 45.6829 28.1933 47.1394 28.6148C48.6231 29.0441 50.5139 29.7209 49.5374 31.9008C48.8333 33.4726 46.4563 33.5243 45.2574 32.7502C44.4218 32.2107 44.4501 31.6007 44.0972 30.7919C43.9533 30.4619 43.0988 30.6209 42.7956 30.6289C42.4508 30.6381 41.6704 30.437 41.4915 30.8253C41.2838 31.2762 41.9342 32.8226 42.1694 33.2645C43.4098 35.5946 46.0646 36.3337 48.3569 35.8653C52.3489 35.0496 53.3396 30.5509 51.6778 28.1526C50.6796 26.712 49.1596 26.4512 47.6902 26.0408C46.4384 25.6912 44.064 25.2354 44.4768 23.2288C44.8451 21.4385 47.1492 21.0332 48.4381 21.7572C49.5062 22.3572 49.2364 23.1342 49.6177 23.6959C49.8199 23.9938 51.7891 23.8983 52.1762 23.7962H52.1762Z" fill="#201E1E"/>
<path fill-rule="evenodd" clip-rule="evenodd" d="M67.9886 29.6977C67.6613 29.6659 65.779 29.6177 65.5746 29.7038C65.3541 29.7967 64.8597 31.0673 64.6351 31.3975C63.8166 32.6009 62.6957 33.2094 61.3376 33.2111C58.4505 33.2147 56.8408 30.1688 56.839 27.2848C56.8372 24.4831 58.5928 21.394 61.3944 21.4207C62.6985 21.4331 63.8522 22.1884 64.6446 23.2918C64.8972 23.6436 65.3449 24.8653 65.616 24.9504C65.8181 25.0138 67.6619 24.9767 67.9598 24.9385C67.9869 23.3598 66.5538 21.2066 65.4545 20.242C61.1792 16.4909 54.2529 19.609 54.2344 27.3493C54.2245 31.4942 56.3676 35.0769 60.1879 35.8798C62.1146 36.2847 63.9407 35.7369 65.473 34.4145C66.6488 33.3998 67.9373 31.3712 67.9886 29.6977L67.9886 29.6977Z" fill="#201E1E"/>
<path fill-rule="evenodd" clip-rule="evenodd" d="M108.61 12.4419C108.56 13.4261 108.63 14.7424 108.63 15.7691C108.63 16.8796 108.63 17.9901 108.63 19.1005C108.63 20.4444 108.589 35.5704 108.654 35.6835C108.75 35.8488 109.764 35.7521 109.983 35.756C110.265 35.761 111.182 35.9749 111.268 35.5857C111.352 35.201 111.28 32.8501 111.28 32.2678V22.2734C111.28 21.6297 111.321 12.4993 111.243 12.3195C111.159 12.1266 110.102 12.2153 109.869 12.2151C109.586 12.215 108.629 12.0798 108.61 12.4419L108.61 12.4419Z" fill="#201E1E"/>
<path fill-rule="evenodd" clip-rule="evenodd" d="M86.272 35.7018C86.4857 35.9699 87.3358 35.7835 87.6863 35.8085C88.0838 35.8368 88.7588 36.0269 88.8297 35.4269L88.8133 15.4201C88.8133 14.9489 88.9126 12.4293 88.6969 12.2292C88.502 12.0483 87.5967 12.1768 87.2905 12.1632C86.9829 12.1496 86.2424 11.9815 86.1634 12.5011C86.1429 12.6357 86.1894 13.8936 86.1899 14.1535L86.1922 32.4582C86.1922 32.9363 86.0949 35.4796 86.272 35.7018H86.272Z" fill="#201E1E"/>
</g>
<defs>
<clipPath id="clip0_9034_2939">
<rect width="146.968" height="40.1521" fill="white"/>
</clipPath>
</defs>
</svg>
