<svg width="249" height="311" viewBox="0 0 249 311" fill="none" xmlns="http://www.w3.org/2000/svg">
<path d="M96.9102 142.459L96.7674 142.469L96.8069 142.354L96.9102 142.459ZM77.0915 25.8008L72.7593 28.7359C55.8936 40.1548 41.288 54.5973 29.6792 71.333L27.5628 74.3884L96.816 142.357C101.71 128.071 103.732 112.958 102.768 97.8878C101.805 82.8175 97.8725 68.0857 91.1993 54.5387L77.0915 25.8008ZM96.7765 142.472L0.414483 153.893L0.220693 157.603C-0.830893 177.944 1.89073 198.304 8.25071 217.652L9.88278 222.624L38.6135 208.513C52.1772 201.876 64.2985 192.626 74.2782 181.292C84.2579 169.959 91.9013 156.765 96.7674 142.469L96.7765 142.472ZM306.325 77.0889L303.387 72.7651C291.973 55.8946 277.531 41.2854 260.793 29.6775L257.738 27.5606L189.883 96.8539C204.156 101.724 219.249 103.731 234.298 102.76C249.348 101.789 264.058 97.8598 277.587 91.1971L306.325 77.0889ZM178.233 0.413816L174.522 0.220608C154.179 -0.832835 133.819 1.89325 114.47 8.26001L109.501 9.88376L123.609 38.6218C130.235 52.1659 139.469 64.2703 150.78 74.2415C162.092 84.2134 175.259 91.8561 189.527 96.7323L178.233 0.413816ZM189.883 96.8539L189.527 96.7323L189.571 97.1551L189.883 96.8539ZM54.5296 240.922L25.7913 255.03L28.727 259.362C40.1443 276.227 54.588 290.833 71.3238 302.441L74.3778 304.557L142.402 235.322C128.107 230.421 112.985 228.392 97.9056 229.354C82.8237 230.318 68.0829 234.25 54.527 240.929L54.5296 240.922ZM157.595 331.898C177.935 332.949 198.295 330.227 217.644 323.867L222.616 322.235L208.505 293.505C201.863 279.931 192.604 267.802 181.26 257.817C169.916 247.831 156.71 240.187 142.402 235.322L153.883 331.704L157.595 331.898ZM235.306 189.773L235.346 189.657L235.209 189.68L235.306 189.773ZM255.03 306.329L259.354 303.39C276.225 291.976 290.834 277.535 302.443 260.796L304.56 257.742L235.306 189.773C230.417 204.062 228.397 219.174 229.362 234.245C230.327 249.316 234.259 264.047 240.931 277.594L255.03 306.329ZM235.346 189.657L331.708 178.238L331.902 174.526C332.955 154.184 330.229 133.823 323.863 114.474L322.239 109.506L293.5 123.614C279.937 130.253 267.818 139.504 257.838 150.837C247.859 162.171 240.215 175.363 235.346 189.657ZM235.205 189.689L235.099 189.563C212.221 163.128 196.527 131.253 189.526 97.0002L189.409 97.1095C162.974 119.991 131.098 135.686 96.8435 142.684L96.9439 142.798C119.829 169.23 135.524 201.107 142.518 235.361L142.641 235.264C169.07 212.38 200.945 196.683 235.197 189.686L235.205 189.689Z" fill="url(#paint0_linear_9034_2900)" fill-opacity="0.54"/>
<defs>
<linearGradient id="paint0_linear_9034_2900" x1="238.824" y1="314.285" x2="101.828" y2="-35.7981" gradientUnits="userSpaceOnUse">
<stop stop-color="#177AE5"/>
<stop offset="1" stop-color="#177AE5" stop-opacity="0"/>
</linearGradient>
</defs>
</svg>
