<svg width="262" height="259" viewBox="0 0 262 259" fill="none" xmlns="http://www.w3.org/2000/svg">
<path fill-rule="evenodd" clip-rule="evenodd" d="M279.991 102.445L272.837 83.3649L188.355 115.039L254.82 54.0239L241.039 39.0127L172.853 101.609L211.161 17.3461L192.61 8.91284L155.894 89.6749L160.612 1.08387L140.264 9.88282e-05L135.271 93.7399L102.316 5.84211L83.2357 12.9959L116.191 100.893L50.8013 33.5419L36.1808 47.7363L97.9789 111.389L17.2169 74.6722L8.78423 93.2221L93.0465 131.53L0.513497 129.192L-0.000611377 149.562L90.1949 151.842L5.71295 183.516L12.8667 202.597L97.3486 170.922L30.884 231.938L44.6634 246.949L112.851 184.353L74.5436 268.615L93.0928 277.048L129.809 196.286L125.091 284.878L145.44 285.961L150.432 192.223L183.387 280.12L202.468 272.966L169.512 185.067L234.902 252.419L249.523 238.226L187.724 174.573L268.486 211.289L276.92 192.739L192.657 154.432L285.189 156.769L285.704 136.399L195.508 134.12L279.991 102.445Z" fill="url(#paint0_linear_9034_3032)"/>
<defs>
<linearGradient id="paint0_linear_9034_3032" x1="276.414" y1="92.9052" x2="-50.2368" y2="191.742" gradientUnits="userSpaceOnUse">
<stop stop-color="#177AE5"/>
<stop offset="1" stop-color="#0147FF" stop-opacity="0"/>
</linearGradient>
</defs>
</svg>
