<svg width="69" height="69" viewBox="0 0 69 69" fill="none" xmlns="http://www.w3.org/2000/svg">
<path d="M27.6951 40.3139C27.7484 40.2647 27.8921 40.2203 28.0954 40.3572C28.2987 40.4942 28.3122 40.6446 28.2866 40.7128C27.5841 42.5834 26.8076 44.8851 26.3389 47.0018C26.1046 48.0598 25.9438 49.0855 25.9114 49.9962C25.8795 50.8966 25.9703 51.7374 26.2844 52.3901C26.8658 53.5975 28.0955 55.4171 29.4494 57.2782C30.8114 59.1504 32.3259 61.1006 33.4983 62.581C33.5511 62.648 33.5662 62.7591 33.4667 62.8883C33.3666 63.0178 33.2481 63.0368 33.1632 63.0019C31.3808 62.2669 29.0045 61.3851 26.7085 60.8361C25.5605 60.5617 24.4201 60.3673 23.3759 60.32C22.3378 60.2729 21.3577 60.3689 20.5535 60.7064C19.0454 61.3397 17.0661 62.6416 15.1446 64.0482C13.2127 65.4625 11.3011 67.0107 9.91839 68.1651C9.84698 68.2247 9.74365 68.236 9.63336 68.1612C9.52335 68.0865 9.49625 67.9877 9.52519 67.9003C10.1178 66.1134 10.8914 63.6357 11.4703 61.2602C11.7597 60.0728 12.0018 58.9037 12.1485 57.8547C12.294 56.8137 12.351 55.8578 12.2486 55.1109C12.1471 54.3709 11.7978 53.5225 11.3243 52.6477C10.8462 51.7646 10.2201 50.8173 9.53094 49.8712C8.15237 47.9788 6.49603 46.0596 5.19367 44.623C5.13545 44.5588 5.11096 44.443 5.20464 44.3007C5.29835 44.1583 5.41567 44.1336 5.49895 44.1616C7.25638 44.7555 9.55391 45.4742 11.7887 46C14.0047 46.5213 16.226 46.8701 17.8006 46.6816C19.3092 46.5008 21.1098 45.513 22.8295 44.3098C24.5695 43.0925 26.304 41.5985 27.6951 40.3139Z" stroke="#177AE5"/>
<path d="M32.7942 37.216C38.6376 32.8302 52.342 19.347 60.4121 0.500168M23.2033 27.0894C23.9461 23.7923 25.4417 20.6901 22.9445 11.4032M39.5327 45.5241C43.9937 46.2637 52.0015 47.4232 60.7393 40.6297" stroke="#177AE5" stroke-linecap="round"/>
</svg>
